<?xml version="1.0" encoding="utf-8"?>
<!-- Generator: Adobe Illustrator 21.0.0, SVG Export Plug-In . SVG Version: 6.00 Build 0)  -->
<svg version="1.1" id="Capa_1" xmlns="http://www.w3.org/2000/svg" xmlns:xlink="http://www.w3.org/1999/xlink" x="0px" y="0px"
	 viewBox="0 0 200 200" style="enable-background:new 0 0 200 200;" xml:space="preserve">
<style type="text/css">
	.st0{fill:#358CC9;}
	.st1{fill:#FFFFFF;}
</style>
<circle class="st0" cx="100" cy="100" r="100"/>
<g>
	<path class="st1" d="M160,62.6c0-1.3-0.2-2.6-0.5-3.9c-1.2-5.9-7.1-10.7-13.4-10.7c-30.4,0-60.8,0-91.2,0c-1.4,0-2.8,0.2-4.2,0.5
		c-6,1.3-10.6,7-10.6,13.1c-0.1,25.2,0,50.5,0,75.7c0,1.3,0.2,2.6,0.5,3.9c1.2,6,7.1,10.7,13.3,10.7c15.4,0,30.7,0,46.1,0
		c15.1,0,30.2,0,45.2,0c1.4,0,2.8-0.2,4.2-0.5c6-1.3,10.6-7,10.6-13.1C160,113.1,160,87.9,160,62.6z M140,58.1
		c0-1.3,0.8-2.1,2.1-2.1c0.7,0,1.3,0,2,0c3.7-0.2,4.1,0.3,3.9,4c-0.1,1.3,0.5,2.7-0.9,3.6c-0.1,0.1-0.2,0.3-0.4,0.3
		c-1.9,0.1-3.8,0.4-5.7-0.2c-0.6-0.2-1-0.9-1-1.7C140,60.7,140,59.4,140,58.1z M124,57.9c0-1.1,0.8-1.8,1.9-1.9c1.3,0,2.7,0,4,0
		c1.3,0,2.1,0.8,2.1,2.1c0,0.7,0,1.3,0,2.1c-0.1,1.2,0.4,2.6-1,3.5c-0.1,0.1-0.2,0.2-0.3,0.2c-1.9,0.1-3.9,0.4-5.8-0.2
		c-0.6-0.2-0.9-0.9-0.9-1.6C124,60.7,124,59.3,124,57.9z M111.9,56c0.7,0,1.5,0,2.2,0c1,0,1.8,0.8,1.8,1.8c0,1.4,0,2.8,0,4.2
		c0,0.9-1.1,1.9-2,1.9c-1.2,0-2.5,0-3.7,0c-1.6,0-2.3-0.7-2.3-2.3c0-0.6,0-1.2,0-1.7C107.8,56.3,108.3,55.8,111.9,56z M152,138.4
		c0,2.9-2.6,5.6-5.6,5.6c-30.9,0-61.8,0-92.7,0c-3,0-5.6-2.6-5.6-5.6c0-21.7,0-43.4,0-65.1c0-1,0.1-1.3,1.2-1.3
		c16.9,0,33.8,0,50.7,0c17,0,33.9,0,50.9,0c0.9,0,1.2,0.2,1.2,1.2C152,94.9,152,116.6,152,138.4z"/>
	<path class="st1" d="M100,96c-9.8,0-19.7,0-29.5,0c-1.8,0-2.5-0.5-2.5-2.5c0-3.6,0-7.2,0-10.9c0-2.1,0.9-2.6,2.6-2.6
		c19.6,0,39.2,0,58.8,0c1.7,0,2.6,0.5,2.6,2.6c0,3.6,0,7.2,0,10.9c0,2-0.7,2.5-2.5,2.5C119.7,96,109.8,96,100,96z"/>
	<path class="st1" d="M68,117.9c0-5.2,0-10.4,0-15.6c0-1.6,0.7-2.3,2.3-2.3c6.4,0,12.7,0,19.1,0c2.1,0,2.6,0.9,2.6,2.6
		c0,10.3,0,20.6,0,30.9c0,1.7-0.4,2.6-2.6,2.6c-6.3,0-12.6,0-18.9,0c-1.9,0-2.6-0.9-2.6-2.5C68.1,128.3,68,123.1,68,117.9z"/>
	<path class="st1" d="M114.1,100c5.4,0,10.9,0,16.3,0c1.1,0,1.7,0.3,1.6,1.5c0,0.4,0,0.7,0,1.1c0.1,1-0.4,1.4-1.4,1.4
		c-8.4,0-16.7,0-25.1,0c-2.7,0-5.3,0-8,0c-1.1,0-1.6-0.3-1.5-1.5c0-0.4,0-0.8,0-1.1c-0.1-1.1,0.4-1.4,1.5-1.4
		C103,100,108.5,100,114.1,100z"/>
	<path class="st1" d="M114,112c-5.4,0-10.9,0-16.3,0c-1.5,0-1.6-0.2-1.6-1.6c0-0.4,0-0.7,0-1.1c-0.1-1,0.4-1.3,1.3-1.3
		c2.4,0,4.8,0,7.2,0c8.5,0,17,0,25.5,0c1.8,0,2.1,0.3,2,1.9c0,0.2,0,0.5,0,0.7c0.1,1-0.4,1.4-1.4,1.4C125.1,112,119.5,112,114,112z"
		/>
	<path class="st1" d="M113.9,120c-5.4,0-10.9,0-16.3,0c-1.1,0-1.7-0.3-1.6-1.6c0-0.4,0-0.7,0-1.1c-0.1-1,0.4-1.4,1.4-1.4
		c8.4,0,16.8,0,25.2,0c2.6,0,5.2,0,7.9,0c1.1,0,1.6,0.3,1.5,1.5c0,0.4,0,0.8,0,1.1c0.1,1.1-0.4,1.4-1.5,1.4
		C125,120,119.5,120,113.9,120z"/>
	<path class="st1" d="M113.9,128c-5.4,0-10.9,0-16.3,0c-1.2,0-1.7-0.4-1.6-1.6c0-0.3,0-0.6,0-0.9c0-1.4,0.2-1.6,1.7-1.6
		c9.4,0,18.8,0,28.2,0c1.6,0,3.2,0,4.9,0c0.9,0,1.3,0.4,1.3,1.2c0,2.7,0.4,2.8-2.7,2.8C124.2,128,119,128,113.9,128z"/>
	<path class="st1" d="M114,132c5.4,0,10.9,0,16.3,0c1.4,0,1.6,0.2,1.6,1.6c0,0.3,0,0.7,0,1c0.1,1-0.4,1.4-1.4,1.4
		c-7.2,0-14.4,0-21.6,0c-3.8,0-7.7,0-11.5,0c-1.2,0-1.7-0.4-1.5-1.6c0-0.3,0-0.7,0-1c-0.1-1.1,0.4-1.4,1.5-1.4
		C103,132,108.5,132,114,132z"/>
</g>
</svg>
