<?xml version="1.0" encoding="utf-8"?>
<!-- Generator: Adobe Illustrator 21.0.0, SVG Export Plug-In . SVG Version: 6.00 Build 0)  -->
<svg version="1.1" id="Capa_1" xmlns="http://www.w3.org/2000/svg" xmlns:xlink="http://www.w3.org/1999/xlink" x="0px" y="0px"
	 viewBox="0 0 64 64" style="enable-background:new 0 0 64 64;" xml:space="preserve">
<style type="text/css">
	.st0{fill:#545454;}
</style>
<g>
	<path class="st0" d="M62.9,12.4c0-0.7-0.1-1.3-0.2-2C62,7.3,59,4.9,55.7,4.9c-15.7,0-31.3,0-47,0C8,4.9,7.3,5,6.6,5.1
		c-3.1,0.7-5.5,3.6-5.5,6.8c0,13,0,26,0,39c0,0.7,0.1,1.3,0.2,2C2,56,5,58.4,8.2,58.4c7.9,0,15.8,0,23.7,0c7.8,0,15.5,0,23.3,0
		c0.7,0,1.4-0.1,2.1-0.3c3.1-0.7,5.5-3.6,5.5-6.8C62.9,38.4,62.9,25.4,62.9,12.4z M52.6,10.1C52.6,9.4,53,9,53.7,9c0.3,0,0.7,0,1,0
		c1.9-0.1,2.1,0.1,2,2c0,0.6,0.2,1.4-0.5,1.9c-0.1,0-0.1,0.2-0.2,0.2c-1,0-2,0.2-2.9-0.1c-0.3-0.1-0.5-0.5-0.5-0.9
		C52.6,11.4,52.6,10.8,52.6,10.1z M44.4,10c0-0.6,0.4-0.9,1-1c0.7,0,1.4,0,2.1,0c0.7,0,1.1,0.4,1.1,1.1c0,0.3,0,0.7,0,1.1
		c0,0.6,0.2,1.3-0.5,1.8c-0.1,0-0.1,0.1-0.1,0.1c-1,0-2,0.2-3-0.1c-0.3-0.1-0.5-0.4-0.5-0.8C44.4,11.4,44.3,10.7,44.4,10z M38.1,9
		c0.4,0,0.8,0,1.2,0c0.5,0,0.9,0.4,0.9,0.9c0,0.7,0,1.5,0,2.2c0,0.4-0.6,1-1,1c-0.6,0-1.3,0-1.9,0c-0.8,0-1.2-0.4-1.2-1.2
		c0-0.3,0-0.6,0-0.9C36,9.1,36.3,8.9,38.1,9z M58.8,51.4c0,1.5-1.3,2.9-2.9,2.9c-15.9,0-31.8,0-47.7,0c-1.5,0-2.9-1.4-2.9-2.9
		c0-11.2,0-22.3,0-33.5c0-0.5,0.1-0.7,0.6-0.7c8.7,0,17.4,0,26.1,0c8.7,0,17.5,0,26.2,0c0.5,0,0.6,0.1,0.6,0.6
		C58.8,29,58.8,40.2,58.8,51.4z"/>
	<path class="st0" d="M32,29.6c-5.1,0-10.1,0-15.2,0c-1,0-1.3-0.3-1.3-1.3c0-1.9,0-3.7,0-5.6c0-1.1,0.5-1.3,1.3-1.3
		c10.1,0,20.2,0,30.3,0c0.9,0,1.3,0.2,1.3,1.3c0,1.9,0,3.7,0,5.6c0,1-0.3,1.3-1.3,1.3C42.1,29.6,37.1,29.6,32,29.6z"/>
	<path class="st0" d="M15.5,40.8c0-2.7,0-5.4,0-8c0-0.8,0.4-1.2,1.2-1.2c3.3,0,6.6,0,9.8,0c1.1,0,1.3,0.4,1.3,1.3
		c0,5.3,0,10.6,0,15.9c0,0.9-0.2,1.3-1.3,1.3c-3.2,0-6.5,0-9.7,0c-1,0-1.3-0.5-1.3-1.3C15.6,46.2,15.5,43.5,15.5,40.8z"/>
	<path class="st0" d="M39.2,31.6c2.8,0,5.6,0,8.4,0c0.6,0,0.9,0.2,0.8,0.8c0,0.2,0,0.4,0,0.6c0,0.5-0.2,0.7-0.7,0.7
		c-4.3,0-8.6,0-12.9,0c-1.4,0-2.7,0-4.1,0c-0.6,0-0.8-0.2-0.8-0.8c0-0.2,0-0.4,0-0.6c-0.1-0.6,0.2-0.7,0.8-0.7
		C33.5,31.7,36.4,31.6,39.2,31.6z"/>
	<path class="st0" d="M39.2,37.8c-2.8,0-5.6,0-8.4,0c-0.8,0-0.8-0.1-0.8-0.8c0-0.2,0-0.4,0-0.6c0-0.5,0.2-0.7,0.7-0.7
		c1.2,0,2.5,0,3.7,0c4.4,0,8.7,0,13.1,0c0.9,0,1.1,0.2,1,1c0,0.1,0,0.3,0,0.4c0,0.5-0.2,0.7-0.7,0.7C44.9,37.8,42.1,37.8,39.2,37.8z
		"/>
	<path class="st0" d="M39.2,41.9c-2.8,0-5.6,0-8.4,0c-0.6,0-0.9-0.2-0.8-0.8c0-0.2,0-0.4,0-0.6c0-0.5,0.2-0.7,0.7-0.7
		c4.3,0,8.7,0,13,0c1.3,0,2.7,0,4,0c0.6,0,0.8,0.2,0.8,0.8c0,0.2,0,0.4,0,0.6c0.1,0.6-0.2,0.7-0.8,0.7C44.9,41.9,42,41.9,39.2,41.9z
		"/>
	<path class="st0" d="M39.2,46.1c-2.8,0-5.6,0-8.4,0c-0.6,0-0.9-0.2-0.8-0.8c0-0.1,0-0.3,0-0.4c0-0.7,0.1-0.8,0.9-0.8
		c4.8,0,9.7,0,14.5,0c0.8,0,1.7,0,2.5,0c0.5,0,0.7,0.2,0.7,0.6c0,1.4,0.2,1.4-1.4,1.4C44.4,46,41.8,46.1,39.2,46.1z"/>
	<path class="st0" d="M39.2,48.1c2.8,0,5.6,0,8.4,0c0.7,0,0.8,0.1,0.8,0.8c0,0.2,0,0.3,0,0.5c0,0.5-0.2,0.7-0.7,0.7
		c-3.7,0-7.4,0-11.1,0c-2,0-3.9,0-5.9,0c-0.6,0-0.9-0.2-0.8-0.8c0-0.2,0-0.3,0-0.5c-0.1-0.6,0.2-0.7,0.7-0.7
		C33.5,48.1,36.4,48.1,39.2,48.1z"/>
</g>
</svg>
